<svg width="512" height="512" viewBox="0 0 512 512" fill="white" xmlns="http://www.w3.org/2000/svg">
<path d="M103.333 377.617V211.75H118.333V104.972C118.333 47.0906 170.521 0 234.667 0C298.813 0 351 47.0906 351 104.972V182.875H365V227.09H366.012C428.313 227.09 479 272.826 479 329.044V462H388.398C401.023 448.612 408.667 431.286 408.667 412.371C408.667 370.079 370.536 335.672 323.667 335.672C302.23 335.672 282.636 342.885 267.667 354.743V227.09H305V182.875H321V104.972C321 62.0172 282.271 27.0703 234.667 27.0703C187.063 27.0703 148.333 62.0172 148.333 104.972V211.75H163.333V377.617C202.83 381.525 233.667 411.802 233.667 448.465V462H33V448.465C33 411.802 63.837 381.525 103.333 377.617V377.617Z"/>
<path d="M323.667 462C293.291 462 268.667 439.78 268.667 412.371C268.667 384.962 293.291 362.742 323.667 362.742C354.043 362.742 378.667 384.962 378.667 412.371C378.667 439.78 354.043 462 323.667 462Z"/>
<rect y="487" width="150" height="25" fill="#febb02"/>
<rect x="212" y="487" width="300" height="25" fill="#febb02"/>
</svg>

