<?xml version="1.0"?>
<svg xmlns="http://www.w3.org/2000/svg" xmlns:xlink="http://www.w3.org/1999/xlink" xmlns:svgjs="http://svgjs.com/svgjs" version="1.1" width="512" height="512" x="0" y="0" viewBox="0 0 512 512" style="enable-background:new 0 0 512 512" xml:space="preserve" class=""><g><g xmlns="http://www.w3.org/2000/svg"><g><path d="m436 240h45v30h-45z" fill="#3f71c8" data-original="#ffca80" style="" class=""/></g><g><path d="m451 315h-30v-240c0-24.814-20.186-45-45-45s-45 20.186-45 45v30h-30v-30c0-41.353 33.647-75 75-75s75 33.647 75 75z" fill="#3f71c8" data-original="#ffca80" style="" class=""/></g><g><path d="m121 467h30v45h-30z" fill="#000b62" data-original="#596c76" style="" class=""/></g><g><path d="m361 467h30v45h-30z" fill="#000049" data-original="#3b4a51" style="" class=""/></g><path d="m467 315h-211-211l-30 15c8.276 0 15 6.724 15 15 0 74.443 61.557 137 136 137h90 90c74.443 0 136-62.557 136-137 0-8.276 6.724-15 15-15z" fill="#8bbdff" data-original="#fff7cc" style="" class=""/><path d="m482 345c0-8.276 6.724-15 15-15l-30-15h-211v167h90c74.443 0 136-62.557 136-137z" fill="#72a4fb" data-original="#ffe6b3" style="" class=""/><g><path d="m271 90h90v30h-90z" fill="#72a4fb" data-original="#ffe6b3" style="" class=""/></g><g><path d="m331 150h30v30h-30z" fill="#72a4fb" data-original="#ffe6b3" style="" class=""/></g><g><path d="m271 150h30v30h-30z" fill="#72a4fb" data-original="#ffe6b3" style="" class=""/></g><g><g><g><path d="m301 210h30v30h-30z" fill="#72a4fb" data-original="#ffe6b3" style="" class=""/></g></g></g><g><path d="m361 210h30v30h-30z" fill="#72a4fb" data-original="#ffe6b3" style="" class=""/></g><path d="m256 210h-15v30h15 15v-30z" fill="#72a4fb" data-original="#ffe6b3" style="" class=""/><path d="m0 300v30h181l-30-30z" fill="#72a4fb" data-original="#ffe6b3" style="" class=""/><path d="m301 300-30 30h241v-30z" fill="#3f71c8" data-original="#ffca80" style="" class=""/><path d="m256 300h-105v122h105 45v-122z" fill="#0c3e95" data-original="#76e2f8" style="" class=""/><path d="m256 300h45v122h-45z" fill="#00257c" data-original="#00c8c8" style="" class=""/></g></g></svg>
