<?xml version="1.0"?>
<svg xmlns="http://www.w3.org/2000/svg" xmlns:xlink="http://www.w3.org/1999/xlink" xmlns:svgjs="http://svgjs.com/svgjs" version="1.1" width="512" height="512" x="0" y="0" viewBox="0 0 512 512" style="enable-background:new 0 0 512 512" xml:space="preserve" class=""><g><g xmlns="http://www.w3.org/2000/svg" id="filled_outline" data-name="filled outline"><path d="m440 288h-16v-56a72 72 0 0 0 -144 0v48h-16v-48a88 88 0 0 1 176 0z" fill="#428dc5" data-original="#428dc5" style="" class=""/><path d="m232 272h224v32h-224z" fill="#8bbdff" data-original="#6cbae5" style="" class=""/><path d="m432 456h-176l-16-152h208z" fill="#3f71c8" data-original="#4799cf" style="" class=""/><path d="m456 270v57.55c0 8.61-6.62 16.03-15.23 16.43a16.01 16.01 0 0 1 -16.77-15.98 16 16 0 1 1 -32 0 16 16 0 1 1 -32 0 15.942 15.942 0 0 1 -2.14 8 16.141 16.141 0 0 1 -5.86 5.86 15.789 15.789 0 0 1 -7.75 2.14c-8.94.13-16.25-7.5-16.25-16.44v-57.56a22 22 0 0 1 22-22h84a22 22 0 0 1 22 22z" fill="#0c3e95" data-original="#fd9226" style="" class=""/><g fill="#6cbae5"><path d="m256 456h176v32h-176z" fill="#8bbdff" data-original="#6cbae5" style="" class=""/><path d="m392 392h16v40h-16z" fill="#8bbdff" data-original="#6cbae5" style="" class=""/><path d="m392 360h16v16h-16z" fill="#8bbdff" data-original="#6cbae5" style="" class=""/></g><path d="m360 328a15.942 15.942 0 0 1 -2.14 8 16.141 16.141 0 0 1 -5.86 5.86v-45.86h8z" fill="#0c3e95" data-original="#e08122" style="" class=""/><path d="m392 328a15.994 15.994 0 0 1 -8 13.86v-45.86h8z" fill="#0c3e95" data-original="#e08122" style="" class=""/><path d="m424 328a15.994 15.994 0 0 1 -8 13.86v-45.86h8z" fill="#0c3e95" data-original="#e08122" style="" class=""/><path d="m312 488h-256l16-64h224z" fill="#0c3e95" data-original="#fbb540" style="" class=""/><path d="m80 392h208a8 8 0 0 1 8 8v24a0 0 0 0 1 0 0h-224a0 0 0 0 1 0 0v-24a8 8 0 0 1 8-8z" fill="#000b62" data-original="#c17450" style="" class=""/><path d="m168 424h32l8 64h-48z" fill="#2658af" data-original="#ea9d2d" style="" class=""/><path d="m88 488 16-64h32l-16 64z" fill="#2658af" data-original="#ea9d2d" style="" class=""/><path d="m184 24a16 16 0 0 1 16 16v352a0 0 0 0 1 0 0h-32a0 0 0 0 1 0 0v-352a16 16 0 0 1 16-16z" fill="#000b62" data-original="#8f563b" style="" class=""/><path d="m104 208a50.6 50.6 0 0 1 -32 32 50.6 50.6 0 0 1 32 32 50.6 50.6 0 0 1 32-32 50.6 50.6 0 0 1 -32-32z" fill="#0c3e95" data-original="#fbb540" style="" class=""/><path d="m456 112a50.6 50.6 0 0 1 -32 32 50.6 50.6 0 0 1 32 32 50.6 50.6 0 0 1 32-32 50.6 50.6 0 0 1 -32-32z" fill="#0c3e95" data-original="#fbb540" style="" class=""/><path d="m56 304a50.6 50.6 0 0 1 -32 32 50.6 50.6 0 0 1 32 32 50.6 50.6 0 0 1 32-32 50.6 50.6 0 0 1 -32-32z" fill="#0c3e95" data-original="#fbb540" style="" class=""/><path d="m232 424h32l16 64h-32z" fill="#2658af" data-original="#ea9d2d" style="" class=""/><path d="m440 240.6v-8.6a88 88 0 0 0 -176 0v32h-32a8 8 0 0 0 -8 8v32a8 8 0 0 0 8 8h.8l7.576 72h-32.376v-344a24 24 0 0 0 -48 0v344h-80a16.019 16.019 0 0 0 -16 16v23.015l-15.761 63.045a8 8 0 0 0 7.761 9.94h376a8 8 0 0 0 8-8v-31.58l11.292-107.272a24.481 24.481 0 0 0 12.708-21.6v-57.548a30.05 30.05 0 0 0 -24-29.4zm-160-8.6a72 72 0 1 1 144 0v8h-74a30.05 30.05 0 0 0 -29.4 24h-40.6zm-40 48h80v16h-80zm8.886 32h71.114v15.56a24.787 24.787 0 0 0 7.376 17.539 23.6 23.6 0 0 0 16.992 6.9 24.107 24.107 0 0 0 15.632-6.126 23.957 23.957 0 0 0 32 0 23.959 23.959 0 0 0 31.992.008 23.755 23.755 0 0 0 10.968 5.574l-10.16 96.545h-114.554l-6.246-24.985v-23.015a16.019 16.019 0 0 0 -16-16h-31.538zm-72.886-272a8 8 0 0 1 16 0v344h-16zm-96 360h208v16h-208zm18.246 80 12-48h15.508l-12 48zm-20-48h15.508l-12 48h-15.508zm64 0h16.692l-6 48h-22.692zm26.816 48 6-48h17.876l6 48zm46 0-6-48h16.692l12 48zm39.184 0-12-48h15.508l12 48zm32 0-12-48h15.508l12 48zm137.754 0h-105.754l-4-16h109.754zm24-176v23.548a8.327 8.327 0 0 1 -7.6 8.442 8 8 0 0 1 -8.4-7.99v-32h-16v32a8 8 0 0 1 -16 0v-32h-16v32a8 8 0 0 1 -16 0v-32h-16v32a7.992 7.992 0 0 1 -7.874 8h-.11a7.7 7.7 0 0 1 -5.412-2.3 8.688 8.688 0 0 1 -2.6-6.139v-57.561a14.015 14.015 0 0 1 14-14h84a14.015 14.015 0 0 1 14 14z" fill="#00002f" data-original="#000000" style="" class=""/><path d="m392 392h16v40h-16z" fill="#00002f" data-original="#000000" style="" class=""/><path d="m392 360h16v16h-16z" fill="#00002f" data-original="#000000" style="" class=""/><path d="m96.411 274.53a8 8 0 0 0 15.178 0 42.8 42.8 0 0 1 26.941-26.94 8 8 0 0 0 0-15.18 42.8 42.8 0 0 1 -26.941-26.94 8 8 0 0 0 -15.178 0 42.8 42.8 0 0 1 -26.941 26.94 8 8 0 0 0 0 15.18 42.8 42.8 0 0 1 26.941 26.94zm7.589-48.963a59.206 59.206 0 0 0 14.432 14.433 59.206 59.206 0 0 0 -14.432 14.433 59.206 59.206 0 0 0 -14.432-14.433 59.206 59.206 0 0 0 14.432-14.433z" fill="#00002f" data-original="#000000" style="" class=""/><path d="m490.53 136.41a42.8 42.8 0 0 1 -26.941-26.94 8 8 0 0 0 -15.178 0 42.8 42.8 0 0 1 -26.941 26.94 8 8 0 0 0 0 15.18 42.8 42.8 0 0 1 26.941 26.94 8 8 0 0 0 15.178 0 42.8 42.8 0 0 1 26.941-26.94 8 8 0 0 0 0-15.18zm-34.53 22.023a59.206 59.206 0 0 0 -14.432-14.433 59.206 59.206 0 0 0 14.432-14.433 59.206 59.206 0 0 0 14.432 14.433 59.206 59.206 0 0 0 -14.432 14.433z" fill="#00002f" data-original="#000000" style="" class=""/><path d="m56 376a8 8 0 0 0 7.589-5.47 42.8 42.8 0 0 1 26.941-26.94 8 8 0 0 0 0-15.18 42.8 42.8 0 0 1 -26.941-26.94 8 8 0 0 0 -15.178 0 42.8 42.8 0 0 1 -26.941 26.94 8 8 0 0 0 0 15.18 42.8 42.8 0 0 1 26.941 26.94 8 8 0 0 0 7.589 5.47zm0-54.433a59.206 59.206 0 0 0 14.432 14.433 59.206 59.206 0 0 0 -14.432 14.433 59.206 59.206 0 0 0 -14.432-14.433 59.206 59.206 0 0 0 14.432-14.433z" fill="#00002f" data-original="#000000" style="" class=""/></g></g></svg>
