<?xml version="1.0"?>
<svg xmlns="http://www.w3.org/2000/svg" xmlns:xlink="http://www.w3.org/1999/xlink" xmlns:svgjs="http://svgjs.com/svgjs" version="1.1" width="512" height="512" x="0" y="0" viewBox="0 0 512 512" style="enable-background:new 0 0 512 512" xml:space="preserve" class=""><g><path xmlns="http://www.w3.org/2000/svg" d="m212.01 73.27-.75 1.1a115.071 115.071 0 0 0 -11.18-6.87c-33.7-18.3-71.59 3.5-76.62 6.57l-.37-.8a44.46 44.46 0 1 1 88.92 0z" fill="#00257c" data-original="#4a5160" style="" class=""/><path xmlns="http://www.w3.org/2000/svg" d="m123.06 74.73c4.89 17.14 9.74 30.27 18.09 40.04-15.4 6.11-37.51 20.55-48.16 54.42l-1.88-27.32a76.34 76.34 0 0 1 31.79-67.45 2.285 2.285 0 0 1 .16.31z" fill="#00257c" data-original="#4a5160" style="" class=""/><path xmlns="http://www.w3.org/2000/svg" d="m242.23 121.07a76.819 76.819 0 0 1 1.39 20.8l-1.88 27.27c-27.12-2.89-34.12-31.25-34.12-31.25-35.84-2.2-54.65-9.3-66.47-23.12-8.35-9.77-13.2-22.9-18.09-40.04a2.285 2.285 0 0 0 -.16-.31s.19-.12.56-.35c5.03-3.07 42.92-24.87 76.62-6.57a115.071 115.071 0 0 1 11.18 6.87 75.478 75.478 0 0 1 16.09 14.86 76.523 76.523 0 0 1 14.88 31.84z" fill="#0c3e95" data-original="#6d7486" style="" class=""/><path xmlns="http://www.w3.org/2000/svg" d="m259.22 183.87a18.394 18.394 0 0 1 -14.4 17.96 18.76 18.76 0 0 1 -3.99.43h-1.25a72.254 72.254 0 0 1 -144.43 0h-1.3a18.6 18.6 0 0 1 -3.98-.43 18.448 18.448 0 0 1 -13.89-22.35c1.91-7.8 9.5-11.54 16.43-10.23h.58v-.06c10.65-33.87 32.76-48.31 48.16-54.42 11.82 13.82 30.63 20.92 66.47 23.12 0 0 7 28.36 34.12 31.25v.01h.53a14.033 14.033 0 0 1 16.43 10.33 18.707 18.707 0 0 1 .52 4.39z" fill="#ffffff" data-original="#ffd8b7" style="" class=""/><path xmlns="http://www.w3.org/2000/svg" d="m230.77 299.06-18.39-5.28v-37.16l-.11-.14a72.116 72.116 0 0 0 27.31-54.22h1.25a18.76 18.76 0 0 0 3.99-.43l7.87 40.73a229.965 229.965 0 0 1 3.75 28.76c.78 12.1.49 23.27-5.29 33.59z" fill="#00257c" data-original="#4a5160" style="" class=""/><path xmlns="http://www.w3.org/2000/svg" d="m104.46 298.9-19.28 5.54c-6.56-10.67-7.35-21.05-6.78-32.98a194.961 194.961 0 0 1 3.37-27.56l8.1-42.07a18.6 18.6 0 0 0 3.98.43h1.3a72.145 72.145 0 0 0 27.15 54.1v37.42z" fill="#00257c" data-original="#4a5160" style="" class=""/><path xmlns="http://www.w3.org/2000/svg" d="m212.38 256.62v37.16l-4.62 4.5a57.928 57.928 0 0 1 -80.84 0l-4.62-4.5v-37.42a72.262 72.262 0 0 0 89.97.12z" fill="#ffffff" data-original="#efc597" style="" class=""/><path xmlns="http://www.w3.org/2000/svg" d="m322.8 381.09a76.485 76.485 0 0 0 -55.575-71.52l-36.525-10.51-18.353-5.28-4.6 4.5a57.916 57.916 0 0 1 -80.83 0l-4.616-4.5-17.837 5.12-37.344 10.67a76.627 76.627 0 0 0 -55.22 71.375l-.9 25.055h290.82l21.18-20.61v-.01z" fill="#000b62" data-original="#56637b" style="" class=""/><path xmlns="http://www.w3.org/2000/svg" d="m354.07 233.84-6.12 6.12a20.768 20.768 0 0 0 0 29.37l105.12 105.12a20.756 20.756 0 0 0 29.36 0l6.13-6.12z" fill="#72a4fb" data-original="#e87187" style="" class=""/><path xmlns="http://www.w3.org/2000/svg" d="m363.9 285.28-.67 3.93a39.929 39.929 0 0 0 11.13 34.87l23.96 23.96a39.918 39.918 0 0 0 34.86 11.13l3.94-.67z" fill="#3f71c8" data-original="#e75163" style="" class=""/><path xmlns="http://www.w3.org/2000/svg" d="m276.602 371.545h128.566v19.94h-128.566z" fill="#2658af" transform="matrix(.707 -.707 .707 .707 -169.929 352.785)" data-original="#b0b5ca" style="" class=""/><path xmlns="http://www.w3.org/2000/svg" d="m302.48 434.02-46.25 46.25a9.97 9.97 0 1 1 -14.1-14.1l46.25-46.25z" fill="#0c3e95" data-original="#6d7486" style="" class=""/><path xmlns="http://www.w3.org/2000/svg" d="m63.493 329.8a76.22 76.22 0 0 1 33.627-20.23l32.092-9.171q-1.171-1.024-2.3-2.119l-4.616-4.5-17.837 5.12-37.339 10.67a76.627 76.627 0 0 0 -55.22 71.375l-.9 25.055h30l.9-25.055a76.144 76.144 0 0 1 21.593-51.145z" fill="#000049" data-original="#495363" style="" class=""/><path xmlns="http://www.w3.org/2000/svg" d="m251.15 304.91 14.15 4.06v97.32h-195.92v-97.32l15.8-4.53 19.28-5.54a61.868 61.868 0 0 0 61.87 61.59h2.58a61.852 61.852 0 0 0 61.86-61.43z" fill="#4689d3" data-original="#4689d3" style="" class=""/><g xmlns="http://www.w3.org/2000/svg" fill="#284268"><path d="m91 336.825a6 6 0 0 0 -6 6v2.64a6 6 0 0 0 12 0v-2.64a6 6 0 0 0 -6-6z" fill="#284268" data-original="#284268" style="" class=""/><path d="m91 355.49a6 6 0 0 0 -6 6v29.1a6 6 0 0 0 12 0v-29.1a6 6 0 0 0 -6-6z" fill="#284268" data-original="#284268" style="" class=""/><path d="m496.757 345.521-11.257 11.259-3.184-3.184 11.259-11.26a6 6 0 1 0 -8.485-8.485l-11.259 11.26-3.185-3.185 11.26-11.259a6 6 0 1 0 -8.486-8.485l-11.259 11.259-3.184-3.184 11.257-11.257a6 6 0 0 0 -8.485-8.486l-11.26 11.259-3.184-3.184 11.259-11.259a6 6 0 0 0 -8.485-8.485l-11.259 11.255-3.184-3.184 11.264-11.257a6 6 0 1 0 -8.485-8.486l-11.26 11.26-3.184-3.185 11.259-11.259a6 6 0 0 0 -8.485-8.486l-11.259 11.26-3.185-3.184 11.26-11.26a6 6 0 0 0 -8.485-8.485l-11.26 11.259-3.184-3.184 11.259-11.259a6 6 0 1 0 -8.485-8.485l-11.259 11.259-3.184-3.184 11.259-11.26a6 6 0 0 0 -8.486-8.485l-11.259 11.259-3.184-3.184 11.259-11.259a6 6 0 0 0 -8.485-8.485l-11.267 11.259-3.185-3.184 11.26-11.26a6 6 0 0 0 -8.486-8.485l-11.444 11.444a5.981 5.981 0 0 0 -7.115.994l-6.124 6.124a26.8 26.8 0 0 0 0 37.855l13.758 13.758-.149.88a45.982 45.982 0 0 0 12.8 40.109l.687.687-42.812 42.817a82.5 82.5 0 0 0 -58.968-68.024l-9.53-2.736c3.351-9.154 3.655-18.873 2.933-30.129a235.874 235.874 0 0 0 -3.846-29.509l-6.9-35.727a24.392 24.392 0 0 0 12.846-27.645 19.965 19.965 0 0 0 -16.353-14.911l1.438-20.857a82.079 82.079 0 0 0 -17.551-56.774 78.433 78.433 0 0 0 -14.089-13.663 50.445 50.445 0 0 0 -100.829-.617 81.949 81.949 0 0 0 -32.019 71.053l1.444 20.938a19.874 19.874 0 0 0 -16.41 14.831 24.391 24.391 0 0 0 12.858 27.646l-7.136 37.06a201.553 201.553 0 0 0 -3.478 28.415c-.51 10.724.083 20.127 4.093 29.513l-10.837 3.112a82.547 82.547 0 0 0 -59.731 77.075l-.925 25.197a5.673 5.673 0 0 0 1.677 4.238 5.867 5.867 0 0 0 4.323 1.69h276.814l-49.923 49.923a15.97 15.97 0 0 0 22.584 22.585l132.914-132.914.687.687a45.931 45.931 0 0 0 40.108 12.8l.88-.149 13.759 13.759a26.8 26.8 0 0 0 37.854 0l6.124-6.124a5.982 5.982 0 0 0 1-7.116l11.447-11.447a6 6 0 0 0 -8.486-8.485zm-433.757 54.479h-45.777l.7-18.891a69.992 69.992 0 0 1 19.736-47.2 75.259 75.259 0 0 1 25.341-16.704zm104.547-365.185a38.521 38.521 0 0 1 37.1 28.361c-.566-.317-1.131-.635-1.71-.949-16.193-8.791-35.78-10.315-56.64-4.409a112.065 112.065 0 0 0 -16.017 5.93 38.525 38.525 0 0 1 37.267-28.933zm29.669 37.958c11.166 6.061 19.484 12.663 25.429 20.181a70.086 70.086 0 0 1 14.992 48.505l-1.41 20.446c-17.5-5.486-22.556-24.575-22.779-25.453a6 6 0 0 0 -5.458-4.551c-55.943-3.427-67.021-17.872-77.95-54.654 10.516-5.587 40.647-18.875 67.176-4.474zm-77.45 11.9c3.395 10.8 7.087 20 12.089 27.71a84.279 84.279 0 0 0 -34.536 32.365l-.226-3.288a69.971 69.971 0 0 1 22.673-56.789zm-38.31 99.067a11.386 11.386 0 0 1 .355-2.831 7.818 7.818 0 0 1 7.869-5.914l3.32.005a5.889 5.889 0 0 0 4.386-1.782 5.784 5.784 0 0 0 1.456-2.682c9.016-28.276 26.418-41.956 40.744-48.593 12.286 12.245 31.091 19.211 63.593 21.643 3.335 8.894 13.386 28.6 37.488 31.383h2.721a8.052 8.052 0 0 1 9.485 5.9 11.531 11.531 0 0 1 .355 2.85 12.311 12.311 0 0 1 -12.398 12.281h-1.246a6.114 6.114 0 0 0 -6 5.936 66.255 66.255 0 0 1 -132.446-.008 6.107 6.107 0 0 0 -6-5.928h-1.3a12.3 12.3 0 0 1 -12.382-12.262zm39.153 116.645 2.127 2.134a63.907 63.907 0 0 0 89.207.046l2.128-2.065 10.478 2.767a55.723 55.723 0 0 1 -55.639 50.733h-2.583a55.718 55.718 0 0 1 -55.65-50.888zm-32.6-3.044c-3.7-7.845-4.084-15.8-3.618-25.594a189.564 189.564 0 0 1 3.272-26.715l4.507-23.4a77.639 77.639 0 0 0 20.567 34.427c1.11 1.076 2.265 2.1 3.265 3.1v30.1zm39.991-6.096v-23.545a78.387 78.387 0 0 0 39.025 10.43c13.888 0 27.975-3.624 38.975-10.4v23.516l-2.62 2.736a51.933 51.933 0 0 1 -72.468 0zm90-1.987v-30.058c2-1.015 2.53-2.056 3.655-3.147a78.118 78.118 0 0 0 20.794-34.37l4.3 22.017a224.28 224.28 0 0 1 3.676 28c.661 10.306.238 18.551-2.712 26.036zm41 110.742h-184v-86.507l23.771-7.017c4.016 33.616 32.876 59.524 67.556 59.524h2.583a67.738 67.738 0 0 0 67.346-59.369l22.744 6.626zm12 0v-83.026a70.714 70.714 0 0 1 45.762 64.309l.063 1.707-17.011 17.01zm-19.01 76.022a3.969 3.969 0 1 1 -5.614-5.613l42.007-42.009 5.617 5.616zm50.492-50.492-5.614-5.613 82.422-82.417 5.614 5.614zm100.079-81.73-23.961-23.963a33.956 33.956 0 0 1 -9.8-21.164l54.926 54.927a33.957 33.957 0 0 1 -21.165-9.8zm75.631 26.413a14.785 14.785 0 0 1 -20.884 0l-105.117-105.123a14.782 14.782 0 0 1 0-20.883l1.881-1.882 126 126z" fill="#284268" data-original="#284268" style="" class=""/></g></g></svg>
