<?xml version="1.0"?>
<svg xmlns="http://www.w3.org/2000/svg" xmlns:xlink="http://www.w3.org/1999/xlink" xmlns:svgjs="http://svgjs.com/svgjs" version="1.1" width="512" height="512" x="0" y="0" viewBox="0 0 512.002 512.002" style="enable-background:new 0 0 512 512" xml:space="preserve" class=""><g><g xmlns="http://www.w3.org/2000/svg"><g><path clip-rule="evenodd" d="m130.584 436.98h67.038 53.517v-87.478c-.85-53.32-52.156-56.126-89.743-68.542 0 16.951-13.861 30.841-30.812 30.841s-30.84-13.89-30.84-30.841c-37.588 12.416-88.865 15.222-89.744 68.542v87.478h53.517z" fill="#0c3e95" fill-rule="evenodd" data-original="#ff7b79" style="" class=""/></g><g><path clip-rule="evenodd" d="m304.684 436.98h67.038 67.066 53.517v-87.478c-.454-26.674-13.493-40.706-31.152-49.607-17.603-8.929-39.826-12.728-58.591-18.936 0 16.951-13.889 30.841-30.84 30.841s-30.812-13.89-30.812-30.841c-18.793 6.208-40.988 10.006-58.619 18.936-17.659 8.901-30.699 22.932-31.152 49.607v87.478z" fill="#8bbdff" fill-rule="evenodd" data-original="#a0c8ff" style="" class=""/></g><g><path clip-rule="evenodd" d="m99.743 280.96c0 16.951 13.889 30.841 30.84 30.841s30.812-13.89 30.812-30.841v-20.24c-.482.227-.992.425-1.474.652-9.042 3.827-18.963 5.953-29.338 5.953-10.403 0-20.324-2.126-29.366-5.953-.482-.227-.964-.425-1.474-.652z" fill="#ffffff" fill-rule="evenodd" data-original="#ffd0c7" style="" class=""/></g><g><path clip-rule="evenodd" d="m461.154 299.896c-17.603-8.929-39.826-12.728-58.591-18.936v-29.225c23.981-11.565 40.648-36.17 40.648-64.46 0 46.177 33.562 66.218 58.789 74.552-6.406 25.851-16.384 34.554-40.846 38.069z" fill="#3f71c8" fill-rule="evenodd" data-original="#ffcd69" style="" class=""/></g><g><path clip-rule="evenodd" d="m340.91 280.96c-18.793 6.208-40.988 10.006-58.619 18.936-24.463-3.515-34.412-12.217-40.818-38.07 25.143-8.306 58.591-28.29 58.761-74.183.142 28.148 16.781 52.583 40.676 64.092z" fill="#3f71c8" fill-rule="evenodd" data-original="#ffcd69" style="" class=""/></g><g><path clip-rule="evenodd" d="m371.722 139.567c-15.052 29.764-43.738 33.988-71.488 26.703 0-53.915 15.732-91.248 71.488-91.248 55.785 0 71.488 37.333 71.488 91.248-27.75 7.285-56.436 3.061-71.488-26.703z" fill="#3f71c8" fill-rule="evenodd" data-original="#ffcd69" style="" class=""/></g><g><path clip-rule="evenodd" d="m402.563 251.735c-9.354 4.507-19.814 7.03-30.84 7.03-11.027 0-21.486-2.523-30.812-7.03-23.896-11.509-40.535-35.944-40.676-64.092 0-.142 0-.255 0-.369v-21.004c27.751 7.285 56.437 3.061 71.488-26.703 15.052 29.764 43.738 33.988 71.488 26.703v21.005c0 28.289-16.668 52.894-40.648 64.46z" fill="#ffffff" fill-rule="evenodd" data-original="#ffdcd5" style="" class=""/></g><g><path clip-rule="evenodd" d="m54.843 191.583v-19.389c21.401-2.154 38.862-3.487 51.958-20.665 26.05 17.802 62.758 22.762 99.494 20.183v.482 19.389c0 31.266-19.19 58.252-46.374 69.79-9.042 3.827-18.963 5.953-29.338 5.953-10.403 0-20.324-2.126-29.366-5.953-27.184-11.537-46.374-38.523-46.374-69.79z" fill="#ffffff" fill-rule="evenodd" data-original="#ffdcd5" style="" class=""/></g><g><path clip-rule="evenodd" d="m54.843 151.869c0-41.67 34.072-75.742 75.74-75.742 41.64 0 75.712 34.073 75.712 75.742v19.843c-36.736 2.58-73.444-2.381-99.494-20.183-13.096 17.178-30.557 18.51-51.958 20.665z" fill="#3f71c8" fill-rule="evenodd" data-original="#ffcd69" style="" class=""/></g><g><path clip-rule="evenodd" d="m402.534 280.96c0 16.951-13.861 30.841-30.812 30.841s-30.812-13.89-30.812-30.841v-29.225c9.326 4.507 19.785 7.03 30.812 7.03s21.486-2.523 30.84-7.03z" fill="#ffffff" fill-rule="evenodd" data-original="#ffd0c7" style="" class=""/></g><g><path d="m113.804 209.865c-2.616 0-5.23 1.021-7.192 3.051-3.838 3.971-3.729 10.302.242 14.14 13.077 12.638 34.354 12.638 47.432 0 3.971-3.838 4.08-10.169.242-14.14-3.837-3.971-10.169-4.079-14.14-.242-5.413 5.231-14.222 5.231-19.635 0-1.942-1.875-4.447-2.809-6.949-2.809z" fill="#000049" data-original="#000000" style="" class=""/><g><path d="m130.527 426.98c-5.523 0-10 4.477-10 10s4.477 10 10 10h.057c5.523 0 9.972-4.477 9.972-10s-4.506-10-10.029-10z" fill="#000049" data-original="#000000" style="" class=""/><path d="m511.707 264.231c1.257-5.074-1.606-10.261-6.57-11.9-23.688-7.826-51.926-25.464-51.926-65.057v-21.004c0-31.661-5.413-55.034-16.548-71.455-13.406-19.77-35.255-29.793-64.94-29.793-29.674 0-51.519 10.023-64.928 29.792-11.143 16.427-16.56 39.801-16.56 71.456v21.005c0 39.584-28.224 57.227-51.901 65.058-4.962 1.641-7.823 6.826-6.566 11.899 5.154 20.797 13.076 32.849 27.453 39.609-2.995 2.89-5.7 6.12-8.065 9.719-14.658-22.318-42.854-29.923-66.885-36.399-4.448-1.199-8.738-2.354-12.873-3.567v-6.626c26.722-14.535 44.9-42.876 44.9-75.384v-39.714c0-47.279-38.45-85.743-85.712-85.743-47.277 0-85.74 38.464-85.74 85.743v39.713c0 32.502 18.177 60.838 44.9 75.376v6.634c-4.132 1.212-8.42 2.368-12.865 3.565-33.871 9.129-76.024 20.49-76.876 72.179-.005.056-.005.11-.005.165v87.478c0 5.523 4.477 10 10 10h75.627c5.523 0 10-4.477 10-10s-4.477-10-10-10h-12.11v-40.429c0-5.523-4.477-10-10-10s-10 4.477-10 10v40.429h-33.517v-77.392c.599-34.095 23.859-42.817 62.083-53.119 3.218-.867 6.487-1.752 9.74-2.67 5.396 16.247 20.727 28.001 38.761 28.001 18.022 0 33.342-11.755 38.734-28.001 3.255.918 6.526 1.804 9.747 2.672 38.232 10.302 61.497 19.02 62.074 53.113v77.396h-33.517v-40.429c0-5.523-4.477-10-10-10s-10 4.477-10 10v40.429h-12.195c-5.523 0-10 4.477-10 10s4.477 10 10 10h151.396c5.523 0 10-4.477 10-10s-4.477-10-10-10h-12.138v-40.429c0-5.523-4.477-10-10-10s-10 4.477-10 10v40.429h-33.545v-77.392c.599-34.098 23.869-42.82 62.108-53.122 3.219-.867 6.487-1.751 9.741-2.669 5.392 16.247 20.712 28.003 38.735 28.003 18.034 0 33.365-11.755 38.761-28.001 3.253.918 6.522 1.802 9.74 2.67 38.223 10.302 61.484 19.024 62.083 53.119v77.392h-33.517v-40.429c0-5.523-4.477-10-10-10s-10 4.477-10 10v40.429h-12.195c-5.523 0-10 4.477-10 10s4.477 10 10 10h75.712c5.523 0 10-4.477 10-10v-87.478c0-.055 0-.11-.001-.165-.345-20.939-7.469-35.259-18.073-45.494 14.39-6.76 22.318-18.812 27.473-39.612zm-446.864-112.361c0-36.25 29.491-65.743 65.74-65.743 36.234 0 65.712 29.492 65.712 65.743v10.346c-26.285.879-59.413-2.241-83.852-18.943-4.393-3.001-10.369-2.038-13.595 2.194-8.457 11.093-19.077 13.845-34.005 15.619zm86.553 129.09c0 11.492-9.336 20.841-20.812 20.841-11.491 0-20.84-9.349-20.84-20.841v-6.209c6.675 1.673 13.654 2.574 20.84 2.574 7.177 0 14.146-.899 20.812-2.569zm-20.813-23.634c-36.25 0-65.74-29.492-65.74-65.743v-10.369c16.083-1.797 31.232-4.732 43.81-16.766 27.37 15.476 60.792 18.596 87.642 17.779v9.355c0 36.251-29.478 65.744-65.712 65.744zm192.762-151.285c9.594-14.144 25.418-21.02 48.377-21.02 22.969 0 38.796 6.875 48.387 21.018 7.934 11.7 12.186 28.848 12.961 52.222-18.532 3.225-40.36.647-52.423-23.208-3.621-7.163-14.227-7.162-17.848 0-12.064 23.855-33.892 26.432-52.423 23.208.774-23.368 5.029-40.516 12.969-52.22zm7.565 167.551c-4.132 1.211-8.42 2.367-12.866 3.564-12.111 3.263-25.28 6.812-37.243 12.385-15.647-2.664-22.376-7.671-27.158-21.586 16.213-6.754 35.864-18.978 47.227-40.504 7.153 12.566 17.546 23.048 30.041 30.312v15.829zm61.652 7.368c0 11.492-9.349 20.841-20.84 20.841-11.476 0-20.812-9.349-20.812-20.841v-14.9c6.647 1.757 13.62 2.704 20.812 2.704 7.202 0 14.185-.95 20.84-2.712zm-20.84-32.195c-33.905 0-61.488-27.584-61.488-61.49v-8.801c4.255.594 8.396.892 12.408.892 20.162 0 37.078-7.44 49.08-21.677 12.002 14.238 28.916 21.677 49.081 21.677 4.011 0 8.152-.299 12.408-.892v8.801c-.001 33.905-27.584 61.49-61.489 61.49zm90.926 40.775c-11.956-5.571-25.116-9.119-37.22-12.381-4.445-1.198-8.733-2.354-12.865-3.565v-15.847c12.483-7.263 22.865-17.739 30.013-30.296 11.368 21.532 31.03 33.755 47.253 40.508-4.783 13.906-11.52 18.915-27.181 21.581z" fill="#000049" data-original="#000000" style="" class=""/><path d="m371.722 426.98c-5.523 0-10 4.477-10 10s4.477 10 10 10h.057c5.523 0 9.972-4.477 9.972-10s-4.506-10-10.029-10z" fill="#000049" data-original="#000000" style="" class=""/></g></g></g></g></svg>
