<?xml version="1.0"?>
<svg xmlns="http://www.w3.org/2000/svg" xmlns:xlink="http://www.w3.org/1999/xlink" xmlns:svgjs="http://svgjs.com/svgjs" version="1.1" width="512" height="512" x="0" y="0" viewBox="0 0 512 512" style="enable-background:new 0 0 512 512" xml:space="preserve" class=""><g><g xmlns="http://www.w3.org/2000/svg"><g><path d="m30.968 362.72h450.064c17.103 0 30.968-15.194 30.968-39.968v-111.745c0-18.298-14.833-33.131-33.131-33.131-18.298 0-33.131 14.833-33.131 33.131h-379.475c0-18.298-14.833-33.131-33.131-33.131-18.299 0-33.132 14.834-33.132 33.131v111.745c0 24.774 13.865 39.968 30.968 39.968z" fill="#598be2" data-original="#f1cd65" style="" class=""/><path d="m445.737 275.75v-127.868c0-22.804-18.486-41.29-41.29-41.29h-296.894c-22.804 0-41.29 18.486-41.29 41.29v127.868l189.737 9z" fill="#0c3e95" data-original="#e69644" style="" class=""/><path d="m469.832 372.301-30.239-9-30.24 9v18.58l30.24 9 30.239-9z" fill="#000049" data-original="#2a4a5f" style="" class=""/><path d="m409.353 390.881v4.204c0 5.701 4.622 10.323 10.323 10.323h39.834c5.701 0 10.323-4.622 10.323-10.323v-4.204z" fill="#000b62" data-original="#315771" style="" class=""/><path d="m42.168 390.881 30.239 9 30.239-9v-18.58l-30.239-9-30.239 9z" fill="#000049" data-original="#2a4a5f" style="" class=""/><path d="m42.168 390.881v4.204c0 5.701 4.622 10.323 10.323 10.323h39.833c5.701 0 10.323-4.622 10.323-10.323v-4.204z" fill="#000b62" data-original="#315771" style="" class=""/><path d="m481.032 353.72h-450.064c-17.103 0-30.968-13.865-30.968-30.968v18.581c0 17.103 13.865 30.968 30.968 30.968h450.065c17.103 0 30.968-13.865 30.968-30.968v-18.581c-.001 17.103-13.866 30.968-30.969 30.968z" fill="#72a4fb" data-original="#ebb34f" style="" class=""/><path d="m71.424 294.33h369.151c2.85 0 5.161-2.311 5.161-5.161v-13.419h-379.473v13.419c0 2.85 2.311 5.161 5.161 5.161z" fill="#000b62" data-original="#d48339" style="" class=""/></g></g></g></svg>
