<?xml version="1.0"?>
<svg xmlns="http://www.w3.org/2000/svg" xmlns:xlink="http://www.w3.org/1999/xlink" xmlns:svgjs="http://svgjs.com/svgjs" version="1.1" width="512" height="512" x="0" y="0" viewBox="0 0 512 512" style="enable-background:new 0 0 512 512" xml:space="preserve" class=""><g><path xmlns="http://www.w3.org/2000/svg" d="m484.261719 215.410156c-6-4.933594-15.070313-12.390625-16.105469-16.261718-1.160156-4.347657 2.917969-15.28125 5.894531-23.265626 5.765625-15.46875 12.304688-33.003906 3.671875-47.925781-8.738281-15.101562-27.351562-18.199219-43.777344-20.933593-7.824218-1.304688-19.648437-3.273438-22.671874-6.296876-3.023438-3.023437-4.992188-14.847656-6.296876-22.671874-2.734374-16.425782-5.835937-35.039063-20.9375-43.777344-14.914062-8.632813-32.453124-2.09375-47.925781 3.671875-7.980469 2.976562-18.917969 7.046875-23.261719 5.890625-3.871093-1.035156-11.328124-10.105469-16.265624-16.105469-10.6875-12.996094-22.804688-27.734375-40.585938-27.734375s-29.898438 14.738281-40.589844 27.738281c-4.933594 6-12.390625 15.070313-16.261718 16.105469-4.351563 1.15625-15.28125-2.917969-23.265626-5.894531-15.46875-5.765625-33.003906-12.304688-47.925781-3.671875-15.101562 8.738281-18.199219 27.351562-20.933593 43.777344-1.304688 7.824218-3.273438 19.648437-6.296876 22.671874-3.023437 3.023438-14.847656 4.992188-22.671874 6.296876-16.425782 2.734374-35.039063 5.835937-43.777344 20.9375-8.632813 14.917968-2.09375 32.453124 3.671875 47.925781 2.976562 7.980469 7.050781 18.917969 5.890625 23.261719-1.035156 3.871093-10.105469 11.328124-16.105469 16.265624-12.996094 10.6875-27.734375 22.804688-27.734375 40.585938s14.738281 29.898438 27.738281 40.589844c6 4.933594 15.070313 12.390625 16.105469 16.261718 1.160156 4.347657-2.917969 15.28125-5.894531 23.265626-5.765625 15.46875-12.304688 33.003906-3.671875 47.925781 8.738281 15.101562 27.351562 18.199219 43.777344 20.933593 7.824218 1.304688 19.648437 3.273438 22.671874 6.296876 3.023438 3.023437 4.992188 14.847656 6.296876 22.671874 2.734374 16.425782 5.835937 35.039063 20.9375 43.777344 14.914062 8.632813 32.453124 2.09375 47.925781-3.671875 7.980469-2.976562 18.921875-7.046875 23.261719-5.890625 3.871093 1.035156 11.328124 10.105469 16.265624 16.105469 10.6875 12.996094 22.804688 27.734375 40.585938 27.734375s29.898438-14.738281 40.589844-27.738281c4.933594-6 12.390625-15.070313 16.261718-16.105469 4.351563-1.152344 15.28125 2.917969 23.265626 5.894531 15.46875 5.761719 33.003906 12.304688 47.925781 3.671875 15.101562-8.738281 18.199219-27.351562 20.933593-43.777344 1.304688-7.824218 3.273438-19.648437 6.296876-22.671874 3.023437-3.023438 14.847656-4.992188 22.671874-6.296876 16.425782-2.734374 35.039063-5.835937 43.777344-20.9375 8.632813-14.917968 2.09375-32.453124-3.671875-47.925781-2.976562-7.980469-7.050781-18.917969-5.890625-23.261719 1.035156-3.871093 10.105469-11.328124 16.105469-16.265624 12.996094-10.6875 27.734375-22.804688 27.734375-40.585938s-14.738281-29.898438-27.738281-40.589844zm0 0" fill="#8bbdff" data-original="#00ee8a" style="" class=""/><path xmlns="http://www.w3.org/2000/svg" d="m373.757812 191.355469c-1.488281-10.414063-6.941406-19.628907-15.359374-25.9375-8.414063-6.3125-18.785157-8.96875-29.199219-7.484375-10.414063 1.488281-19.625 6.945312-25.9375 15.359375l-61.371094 81.824219-26.964844-26.964844c-15.355469-15.355469-40.339843-15.355469-55.699219 0-15.355468 15.355468-15.355468 40.34375 0 55.699218l59.078126 59.074219c7.4375 7.441407 17.328124 11.535157 27.847656 11.535157.929687 0 1.867187-.03125 2.792968-.097657 11.394532-.808593 21.863282-6.515625 28.714844-15.65625l88.617188-118.152343c6.3125-8.417969 8.96875-18.785157 7.480468-29.199219zm0 0" fill="#2658af" data-original="#00aa63" style="" class=""/><path xmlns="http://www.w3.org/2000/svg" d="m484.261719 215.410156c-6-4.933594-15.070313-12.390625-16.105469-16.261718-1.160156-4.347657 2.917969-15.28125 5.894531-23.265626 5.765625-15.46875 12.304688-33.003906 3.671875-47.925781-8.738281-15.101562-27.351562-18.199219-43.777344-20.933593-7.824218-1.304688-19.648437-3.273438-22.671874-6.296876-3.023438-3.023437-4.992188-14.847656-6.296876-22.671874-2.734374-16.425782-5.835937-35.039063-20.9375-43.777344-14.914062-8.632813-32.453124-2.09375-47.925781 3.671875-7.980469 2.976562-18.917969 7.046875-23.261719 5.890625-3.871093-1.035156-11.328124-10.105469-16.265624-16.105469-10.6875-12.996094-22.804688-27.734375-40.585938-27.734375v512c17.78125 0 29.898438-14.738281 40.589844-27.738281 4.933594-6 12.390625-15.070313 16.261718-16.105469 4.351563-1.152344 15.28125 2.917969 23.265626 5.894531 15.46875 5.761719 33.003906 12.304688 47.925781 3.671875 15.101562-8.738281 18.199219-27.351562 20.933593-43.777344 1.304688-7.824218 3.273438-19.648437 6.296876-22.671874 3.023437-3.023438 14.847656-4.992188 22.671874-6.296876 16.425782-2.734374 35.039063-5.835937 43.777344-20.9375 8.632813-14.917968 2.09375-32.453124-3.671875-47.925781-2.976562-7.980469-7.050781-18.917969-5.890625-23.261719 1.035156-3.871093 10.105469-11.328124 16.105469-16.265624 12.996094-10.6875 27.734375-22.804688 27.734375-40.585938s-14.738281-29.898438-27.738281-40.589844zm0 0" fill="#598be2" data-original="#00cc76" style="" class=""/><path xmlns="http://www.w3.org/2000/svg" d="m373.757812 191.355469c-1.488281-10.414063-6.941406-19.628907-15.359374-25.9375-8.414063-6.3125-18.785157-8.96875-29.199219-7.484375-10.414063 1.488281-19.625 6.945312-25.9375 15.359375l-47.261719 63.015625v116.890625c8.589844-2.214844 16.253906-7.277344 21.660156-14.488281l88.617188-118.15625c6.3125-8.417969 8.96875-18.785157 7.480468-29.199219zm0 0" fill="#0c3e95" data-original="#009959" style="" class=""/></g></svg>
