<?xml version="1.0"?>
<svg xmlns="http://www.w3.org/2000/svg" xmlns:xlink="http://www.w3.org/1999/xlink" xmlns:svgjs="http://svgjs.com/svgjs" version="1.1" width="512" height="512" x="0" y="0" viewBox="0 0 74 74" style="enable-background:new 0 0 512 512" xml:space="preserve" class=""><g><path xmlns="http://www.w3.org/2000/svg" d="m49.018 47.137 3.089.551c7.368 1.484 12.667 8.669 12.667 16.185v6.961h-55.251v-6.962c0-7.516 5.219-14.737 12.587-16.221l3.071-.636" fill="#8bbdff" data-original="#eeefee" style="" class=""/><path xmlns="http://www.w3.org/2000/svg" d="m64.77 63.87v6.96h-55.25v-3.07h51.5v-6.96a17.2 17.2 0 0 0 -4.41-11.37 17.017 17.017 0 0 1 8.16 14.44z" fill="#8bbdff" data-original="#e1e6e9" style="" class=""/><path xmlns="http://www.w3.org/2000/svg" d="m37.149 52.8-4.832 3.047-7.136-8.832a27 27 0 0 1 4.665-.277z" fill="#0c3e95" data-original="#fe7058" style="" class=""/><path xmlns="http://www.w3.org/2000/svg" d="m32.317 56.347a.5.5 0 0 1 -.389-.186l-7.136-8.831a.5.5 0 0 1 .313-.809 27.681 27.681 0 0 1 4.752-.283.5.5 0 0 1 .309.115l7.3 6.062a.5.5 0 0 1 -.053.808l-4.829 3.047a.5.5 0 0 1 -.267.077zm-6.188-8.954 6.3 7.793 3.871-2.441-6.638-5.51a28.186 28.186 0 0 0 -3.533.159z" fill="#323c6b" data-original="#323c6b" style="" class=""/><path xmlns="http://www.w3.org/2000/svg" d="m37.149 52.8 4.832 3.047 7.038-8.71a25.826 25.826 0 0 0 -4.567-.4z" fill="#0c3e95" data-original="#fe7058" style="" class=""/><g xmlns="http://www.w3.org/2000/svg" fill="#323c6b"><path d="m41.98 56.347a.5.5 0 0 1 -.267-.077l-4.832-3.047a.5.5 0 0 1 -.053-.808l7.3-6.062a.5.5 0 0 1 .309-.115 26.531 26.531 0 0 1 4.654.4.5.5 0 0 1 .313.809l-7.038 8.71a.5.5 0 0 1 -.386.19zm-3.98-3.602 3.873 2.442 6.207-7.687a23.448 23.448 0 0 0 -3.445-.268z" fill="#323c6b" data-original="#323c6b" style="" class=""/><path d="m37.15 58.926a.5.5 0 0 1 -.5-.5v-.37a.5.5 0 0 1 1 0v.37a.5.5 0 0 1 -.5.5z" fill="#323c6b" data-original="#323c6b" style="" class=""/><path d="m37.15 63.27a.5.5 0 0 1 -.5-.5v-.37a.5.5 0 0 1 1 0v.37a.5.5 0 0 1 -.5.5z" fill="#323c6b" data-original="#323c6b" style="" class=""/><path d="m37.15 67.614a.5.5 0 0 1 -.5-.5v-.37a.5.5 0 0 1 1 0v.37a.5.5 0 0 1 -.5.5z" fill="#323c6b" data-original="#323c6b" style="" class=""/><path d="m20.745 71.333a.5.5 0 0 1 -.5-.5v-9.858a.5.5 0 0 1 1 0v9.859a.5.5 0 0 1 -.5.499z" fill="#323c6b" data-original="#323c6b" style="" class=""/><path d="m53.553 71.333a.5.5 0 0 1 -.5-.5v-9.858a.5.5 0 0 1 1 0v9.859a.5.5 0 0 1 -.5.499z" fill="#323c6b" data-original="#323c6b" style="" class=""/><path d="m67.774 65.313a.5.5 0 0 1 -.5-.5v-.94a19.086 19.086 0 0 0 -1.461-7.308.5.5 0 1 1 .924-.381 20.066 20.066 0 0 1 1.537 7.688v.94a.5.5 0 0 1 -.5.501z" fill="#323c6b" data-original="#323c6b" style="" class=""/><path d="m67.774 68.125a.5.5 0 0 1 -.5-.5v-.531a.5.5 0 0 1 1 0v.531a.5.5 0 0 1 -.5.5z" fill="#323c6b" data-original="#323c6b" style="" class=""/></g><path xmlns="http://www.w3.org/2000/svg" d="m44.045 43.069.41 3.659-7.306 6.076-7.306-6.046.41-3.678" fill="#ffffff" data-original="#fcd462" style="" class=""/><path xmlns="http://www.w3.org/2000/svg" d="m37.148 53.3a.5.5 0 0 1 -.318-.115l-7.306-6.046a.5.5 0 0 1 -.179-.44l.41-3.679a.49.49 0 0 1 .553-.442.5.5 0 0 1 .441.552l-.381 3.411 6.778 5.609 6.78-5.639-.38-3.391a.5.5 0 0 1 .441-.553.507.507 0 0 1 .553.441l.41 3.658a.5.5 0 0 1 -.178.44l-7.307 6.077a.5.5 0 0 1 -.317.117z" fill="#323c6b" data-original="#323c6b" style="" class=""/><path xmlns="http://www.w3.org/2000/svg" d="m51.8 26.737a3.883 3.883 0 0 1 2.1 3.193 4.229 4.229 0 0 1 -3.894 4.082l-25.849-.012a4.235 4.235 0 0 1 -3.774-4.074 3.9 3.9 0 0 1 2.261-3.27z" fill="#ffffff" data-original="#fcd462" style="" class=""/><path xmlns="http://www.w3.org/2000/svg" d="m50.037 34.511-25.881-.011a4.763 4.763 0 0 1 -4.273-4.574 4.386 4.386 0 0 1 2.551-3.724.5.5 0 0 1 .21-.046l29.157.078a.5.5 0 0 1 .23.057 4.358 4.358 0 0 1 2.369 3.639 4.723 4.723 0 0 1 -4.363 4.581zm-27.279-7.351a3.383 3.383 0 0 0 -1.875 2.77 3.723 3.723 0 0 0 3.317 3.576l25.811.006a3.742 3.742 0 0 0 3.389-3.582 3.356 3.356 0 0 0 -1.731-2.693z" fill="#323c6b" data-original="#323c6b" style="" class=""/><path xmlns="http://www.w3.org/2000/svg" d="m50.341 21.977v10.976c0 5.995-4.405 10.01-8.135 12.322a9.545 9.545 0 0 1 -10.134 0c-3.73-2.312-8.126-6.328-8.126-12.322v-10.976z" fill="#ffffff" data-original="#fcd462" style="" class=""/><path xmlns="http://www.w3.org/2000/svg" d="m50.34 21.98v10.97c0 6-4.4 10.01-8.13 12.33a9.55 9.55 0 0 1 -8.83.68 9.6 9.6 0 0 0 6.08-1.4c3.73-2.31 8.13-6.33 8.13-12.32v-10.26z" fill="#ffffff" data-original="#f7be56" style="" class=""/><path xmlns="http://www.w3.org/2000/svg" d="m64.774 71.333h-55.251a.5.5 0 0 1 -.5-.5v-6.96c0-8.036 5.584-15.22 12.988-16.711l3.067-.636a.506.506 0 0 1 .591.388.5.5 0 0 1 -.388.591l-3.07.636c-6.95 1.4-12.188 8.162-12.188 15.731v6.461h54.251v-6.46c0-7.539-5.273-14.287-12.266-15.694l-3.078-.549a.5.5 0 0 1 .176-.984l3.094.554c7.461 1.5 13.079 8.671 13.079 16.677v6.961a.5.5 0 0 1 -.505.495z" fill="#323c6b" data-original="#323c6b" style="" class=""/><path xmlns="http://www.w3.org/2000/svg" d="m37.133 47.224a10 10 0 0 1 -5.327-1.524c-3.812-2.364-8.359-6.5-8.359-12.746v-10.977a.5.5 0 0 1 .5-.5h26.4a.5.5 0 0 1 .5.5v10.976c0 6.245-4.553 10.379-8.372 12.747a10.064 10.064 0 0 1 -5.342 1.524zm-12.687-24.747v10.476c0 5.79 4.29 9.666 7.89 11.9a9.081 9.081 0 0 0 9.6 0c3.605-2.235 7.9-6.113 7.9-11.9v-10.476z" fill="#323c6b" data-original="#323c6b" style="" class=""/><path xmlns="http://www.w3.org/2000/svg" d="m21.921 20.452c.679-10.343 7.168-17.619 15.223-17.619 8.075 0 14.582 7.325 15.223 17.717" fill="#0c3e95" data-original="#fe7058" style="" class=""/><path xmlns="http://www.w3.org/2000/svg" d="m52.37 20.55-2.57-.01c-1.17-9.53-7.41-16.11-15.06-16.11a12.984 12.984 0 0 0 -6.09 1.51 13.254 13.254 0 0 1 8.49-3.11c8.08 0 14.59 7.33 15.23 17.72z" fill="#0c3e95" data-original="#ea6453" style="" class=""/><path xmlns="http://www.w3.org/2000/svg" d="m30.161 17.485h-.049a.5.5 0 0 1 -.45-.545c.842-8.734 3.849-14.6 7.482-14.6s6.643 5.86 7.484 14.587a.5.5 0 0 1 -1 .1c-.76-7.935-3.488-13.692-6.483-13.692s-5.723 5.761-6.486 13.7a.5.5 0 0 1 -.498.45z" fill="#323c6b" data-original="#323c6b" style="" class=""/><path xmlns="http://www.w3.org/2000/svg" d="m19.628 16.3a.5.5 0 0 1 -.494-.584c.022-.13.045-.26.075-.387a.5.5 0 1 1 .973.229c-.024.106-.043.215-.062.325a.5.5 0 0 1 -.492.417z" fill="#323c6b" data-original="#323c6b" style="" class=""/><path xmlns="http://www.w3.org/2000/svg" d="m20.346 13.788a.5.5 0 0 1 -.474-.661 22.916 22.916 0 0 1 3.682-6.872.5.5 0 1 1 .785.619 21.93 21.93 0 0 0 -3.52 6.574.5.5 0 0 1 -.473.34z" fill="#323c6b" data-original="#323c6b" style="" class=""/><path xmlns="http://www.w3.org/2000/svg" d="m22.079 22.878c.414 2.6.769 5.176.769 5.176a1.064 1.064 0 0 0 1.085.887h.148a1.018 1.018 0 0 0 1.075-.877c-.059-.828 1.154-4.792 1.183-5.186" fill="#3f71c8" data-original="#9297ab" style="" class=""/><path xmlns="http://www.w3.org/2000/svg" d="m24.08 29.442h-.147a1.556 1.556 0 0 1 -1.581-1.328s-.352-2.564-.767-5.157a.5.5 0 0 1 .988-.157c.414 2.608.77 5.187.77 5.187a.568.568 0 0 0 .59.456h.147c.3 0 .567-.186.575-.4a20.047 20.047 0 0 1 .852-3.9c.148-.554.317-1.183.333-1.308a.52.52 0 0 1 .546-.445.494.494 0 0 1 .451.526 13.031 13.031 0 0 1 -.364 1.486 25.031 25.031 0 0 0 -.818 3.627 1.522 1.522 0 0 1 -1.575 1.413z" fill="#323c6b" data-original="#323c6b" style="" class=""/><path xmlns="http://www.w3.org/2000/svg" d="m47.952 22.878c.03.394 1.242 4.358 1.183 5.186a1.018 1.018 0 0 0 1.075.877h.148a1.064 1.064 0 0 0 1.085-.887s.355-2.573.769-5.176" fill="#3f71c8" data-original="#9297ab" style="" class=""/><path xmlns="http://www.w3.org/2000/svg" d="m50.357 29.442h-.148a1.518 1.518 0 0 1 -1.574-1.358 23.962 23.962 0 0 0 -.819-3.688 13.279 13.279 0 0 1 -.363-1.479.5.5 0 0 1 .461-.537.508.508 0 0 1 .536.456c.017.129.185.751.332 1.3a19.6 19.6 0 0 1 .853 3.964c.009.157.277.342.575.342h.148a.565.565 0 0 0 .586-.442c0-.01.358-2.588.772-5.2a.5.5 0 0 1 .988.157c-.414 2.6-.769 5.166-.769 5.166a1.552 1.552 0 0 1 -1.578 1.319z" fill="#323c6b" data-original="#323c6b" style="" class=""/><path xmlns="http://www.w3.org/2000/svg" d="m20.816 21.085c10.4-6.175 21.987-6.054 32.485-.017a1.541 1.541 0 0 1 -.743 2.888h-30.958a1.543 1.543 0 0 1 -.784-2.871z" fill="#0c3e95" data-original="#fe7058" style="" class=""/><path xmlns="http://www.w3.org/2000/svg" d="m52.56 23.96h-2.84a1.543 1.543 0 0 0 .75-2.89 32.9 32.9 0 0 0 -14.93-4.53 32.293 32.293 0 0 1 17.76 4.53 1.542 1.542 0 0 1 -.74 2.89z" fill="#0c3e95" data-original="#ea6453" style="" class=""/><path xmlns="http://www.w3.org/2000/svg" d="m52.366 21.05a.5.5 0 0 1 -.5-.469c-.616-9.994-6.809-17.248-14.724-17.248-7.878 0-14.069 7.213-14.724 17.151a.494.494 0 0 1 -.532.466.5.5 0 0 1 -.466-.532c.689-10.479 7.3-18.085 15.722-18.085 8.46 0 15.072 7.648 15.722 18.186a.5.5 0 0 1 -.468.53z" fill="#323c6b" data-original="#323c6b" style="" class=""/><path xmlns="http://www.w3.org/2000/svg" d="m52.557 24.457h-30.957a1.993 1.993 0 0 1 -1.965-1.5 2.026 2.026 0 0 1 .927-2.3c10.476-6.224 22.192-6.229 32.988-.021a2.041 2.041 0 0 1 .972 2.32 1.982 1.982 0 0 1 -1.965 1.501zm-31.487-2.942a1.044 1.044 0 0 0 .527 1.941h30.96a1 1 0 0 0 1-.759 1.042 1.042 0 0 0 -.5-1.2c-10.472-6.021-21.829-6.017-31.98.013z" fill="#323c6b" data-original="#323c6b" style="" class=""/><path xmlns="http://www.w3.org/2000/svg" d="m37.66 20.655.3-.007a.515.515 0 0 1 .016 1.03l-.3.007a.515.515 0 1 1 -.016-1.03z" fill="#ffffff" data-original="#ffffff" style="" class=""/><path xmlns="http://www.w3.org/2000/svg" d="m29.915 20.683 5.942-.006a.515.515 0 1 1 .016 1.03l-5.942.006a.515.515 0 0 1 -.016-1.03z" fill="#ffffff" data-original="#ffffff" style="" class=""/></g></svg>
