<?xml version="1.0"?>
<svg xmlns="http://www.w3.org/2000/svg" xmlns:xlink="http://www.w3.org/1999/xlink" xmlns:svgjs="http://svgjs.com/svgjs" version="1.1" width="512" height="512" x="0" y="0" viewBox="0 0 512 512" style="enable-background:new 0 0 512 512" xml:space="preserve" class=""><g><g xmlns="http://www.w3.org/2000/svg" id="Flat"><path d="m24 24h464v464h-464z" fill="#0c3e95" data-original="#dfdfdd" style="" class=""/><path d="m56 56h400v400h-400z" fill="#8bbdff" data-original="#85ccd5" style="" class=""/><g fill="#d5d5d3"><path d="m67.32 56h-11.32v11.32l-32-32v-11.32h11.32z" fill="#00257c" data-original="#d5d5d3" style="" class=""/><path d="m488 24v11.32l-32 32v-11.32h-11.32l32-32z" fill="#00257c" data-original="#d5d5d3" style="" class=""/><path d="m67.32 456-32 32h-11.32v-11.32l32-32v11.32z" fill="#00257c" data-original="#d5d5d3" style="" class=""/><path d="m488 476.68v11.32h-11.32l-32-32h11.32v-11.32z" fill="#00257c" data-original="#d5d5d3" style="" class=""/></g><path d="m56 56h400v16h-400z" fill="#72a4fb" data-original="#7fc6ce" style="" class=""/><path d="m23.265 159.029h305.47v33.941h-305.47z" fill="#34507b" transform="matrix(.707 -.707 .707 .707 -72.902 176)" data-original="#34507b" style="" class=""/><path d="m488 360v96l-64-64 48-48z" fill="#ffffff" data-original="#fdc8a2" style="" class=""/><path d="m404.434 388.006-173.016-179.424.582-.582v-64l-88 88h62.857l173.149 179.562a16.968 16.968 0 0 0 24.212.22 16.967 16.967 0 0 0 .216-23.776z" fill="#00257c" data-original="#ffb431" style="" class=""/><path d="m360 76.273h16v175.454h-16z" fill="#72a4fb" transform="matrix(.684 -.73 .73 .684 -3.334 320.303)" data-original="#add7db" style="" class=""/><path d="m160 277.49h16v181.019h-16z" fill="#72a4fb" transform="matrix(.707 -.707 .707 .707 -211.009 226.579)" data-original="#add7db" style="" class=""/><path d="m376 82.745h16v90.51h-16z" fill="#72a4fb" transform="matrix(.707 -.707 .707 .707 21.961 309.019)" data-original="#add7db" style="" class=""/><path d="m120 338.745h16v90.51h-16z" fill="#72a4fb" transform="matrix(.707 -.707 .707 .707 -234.039 202.981)" data-original="#add7db" style="" class=""/><path d="m480 336-64 64-14.34-14.34-11.32-11.32-14.34-14.34h-72a16 16 0 0 1 -16-16v-8h-8a16 16 0 0 1 -16-16v-8h-8a16 16 0 0 1 -16-16v-8h-8a16 16 0 0 1 0-32h45.14l-30.86-32h121.72z" fill="#3f71c8" data-original="#348ed8" style="" class=""/><path d="m280 248h40v16h-40z" fill="#2658af" data-original="#2c86d1" style="" class=""/><path d="m386.887 349.996h62.225v16.009h-62.225z" fill="#2658af" transform="matrix(.707 -.707 .707 .707 -130.715 400.426)" data-original="#2c86d1" style="" class=""/></g></g></svg>
